Coordinates
version=1
nRows=49
nColumns=12
inDegrees=yes

Units are S.I. units (second, meters, Newtons, ...)
Angles are in degrees

endheader
time	SC_y	SC_z	SC_x	AC_y	AC_z	AC_x	GH_y	GH_z	GH_yy	EL_x	PS_y
       0.0              -18.59          31.72          41.27          36.52         -2.492         -19.23         -161.9          42.56         -18.47          61.41          123.3
    0.0017              -18.59          31.72          41.26          36.52          -2.49         -19.22         -161.9          42.57         -18.45           61.4          123.3
    0.0034              -18.59          31.72          41.26          36.52         -2.488         -19.22         -161.8          42.57         -18.43           61.4          123.3
    0.0051               -18.6          31.72          41.26          36.52         -2.486         -19.22         -161.8          42.58         -18.41          61.39          123.3
    0.0068               -18.6          31.73          41.25          36.52         -2.484         -19.21         -161.7          42.58         -18.39          61.39          123.3
  0.008501               -18.6          31.73          41.25          36.52         -2.482         -19.21         -161.7          42.59         -18.37          61.38          123.3
    0.0102              -18.61          31.73          41.24          36.52         -2.479         -19.21         -161.6          42.59         -18.34          61.38          123.3
    0.0119              -18.61          31.73          41.24          36.53         -2.477          -19.2         -161.6           42.6         -18.31          61.37          123.3
    0.0136              -18.62          31.73          41.23          36.53         -2.474          -19.2         -161.5          42.61         -18.28          61.36          123.3
    0.0153              -18.62          31.73          41.22          36.53         -2.471         -19.19         -161.4          42.62         -18.25          61.35          123.3
     0.017              -18.63          31.73          41.22          36.53         -2.468         -19.19         -161.3          42.62         -18.22          61.34          123.3
    0.0187              -18.64          31.73          41.21          36.53         -2.465         -19.18         -161.2          42.63         -18.18          61.34          123.3
    0.0204              -18.64          31.73           41.2          36.53         -2.461         -19.18         -161.1          42.64         -18.15          61.33          123.3
    0.0221              -18.65          31.74          41.19          36.54         -2.457         -19.17         -161.0          42.65          -18.1          61.32          123.4
    0.0238              -18.66          31.74          41.19          36.54         -2.453         -19.16         -160.9          42.66         -18.06           61.3          123.4
    0.0255              -18.67          31.74          41.18          36.54         -2.448         -19.15         -160.8          42.68         -18.01          61.29          123.4
    0.0272              -18.67          31.74          41.16          36.54         -2.443         -19.14         -160.7          42.69         -17.96          61.28          123.4
    0.0289              -18.68          31.74          41.15          36.55         -2.438         -19.14         -160.5           42.7          -17.9          61.26          123.4
    0.0306               -18.7          31.75          41.14          36.55         -2.432         -19.13         -160.4          42.72         -17.84          61.25          123.4
    0.0323              -18.71          31.75          41.13          36.55         -2.425         -19.11         -160.2          42.74         -17.77          61.23          123.4
     0.034              -18.72          31.75          41.11          36.56         -2.418          -19.1         -160.0          42.75         -17.69          61.21          123.4
    0.0357              -18.74          31.76          41.09          36.56          -2.41         -19.09         -159.8          42.78         -17.61          61.19          123.4
    0.0374              -18.75          31.76          41.08          36.57         -2.402         -19.07         -159.6           42.8         -17.52          61.16          123.4
    0.0391              -18.77          31.76          41.06          36.57         -2.392         -19.06         -159.3          42.82         -17.42          61.14          123.4
    0.0408              -18.79          31.77          41.03          36.58         -2.381         -19.04         -159.1          42.85          -17.3          61.11          123.5
    0.0425              -18.81          31.77          41.01          36.59         -2.369         -19.02         -158.7          42.88         -17.18          61.08          123.5
    0.0442              -18.84          31.78          40.98          36.59         -2.356          -19.0         -158.4          42.92         -17.03          61.04          123.5
    0.0459              -18.87          31.78          40.95           36.6         -2.341         -18.97         -158.0          42.96         -16.87           61.0          123.5
    0.0476               -18.9          31.79          40.91          36.61         -2.324         -18.94         -157.5           43.0         -16.69          60.95          123.5
    0.0493              -18.93           31.8          40.87          36.62         -2.304         -18.91         -157.0          43.05         -16.49           60.9          123.6
     0.051              -18.97          31.81          40.82          36.64         -2.282         -18.87         -156.5          43.11         -16.26          60.84          123.6
    0.0527              -19.02          31.82          40.77          36.65         -2.257         -18.83         -155.8          43.18         -15.99          60.77          123.6
    0.0544              -19.07          31.83           40.7          36.67         -2.228         -18.78         -155.0          43.26         -15.68          60.69          123.7
    0.0561              -19.14          31.84          40.63          36.69         -2.194         -18.72         -154.1          43.35         -15.32           60.6          123.7
    0.0578              -19.21          31.86          40.55          36.71         -2.154         -18.65         -153.1          43.45          -14.9          60.49          123.8
    0.0595               -19.3          31.88          40.45          36.74         -2.107         -18.57         -151.9          43.57          -14.4          60.36          123.8
    0.0612               -19.4           31.9          40.33          36.77         -2.051         -18.48         -150.4          43.72         -13.81          60.21          123.9
    0.0629              -19.53          31.93          40.18          36.81         -1.984         -18.36         -148.7           43.9          -13.1          60.03          124.0
    0.0646              -19.68          31.96          40.01          36.86         -1.904         -18.22         -146.5          44.11         -12.25          59.81          124.1
    0.0663              -19.86           32.0           39.8          36.91         -1.805         -18.06         -144.0          44.37         -11.21          59.54          124.3
     0.068              -20.09          32.05          39.54          36.98         -1.683         -17.85         -140.8          44.69         -9.916          59.21          124.4
    0.0697              -20.37          32.11          39.22          37.07         -1.531         -17.59         -136.8          45.09         -8.309           58.8          124.6
    0.0714              -20.72          32.19          38.81          37.18          -1.34         -17.26         -131.8          45.59         -6.284          58.28          124.9
    0.0731              -21.17          32.29          38.29          37.32         -1.096         -16.85         -125.4          46.23          -3.71          57.62          125.3
    0.0748              -21.75          32.42          37.62           37.5         -0.785         -16.31         -117.3          47.05        -0.4147          56.78          125.7
    0.0765              -22.49          32.58          36.77          37.73        -0.3854         -15.63         -106.8           48.1          3.813          55.69          126.2
    0.0782              -23.44          32.79          35.68          38.02         0.1251         -14.76         -93.43          49.45          9.214          54.31          127.0
    0.0799              -24.63          33.05          34.31          38.39          0.767         -13.67         -76.62          51.13          16.01          52.56          127.9
    0.0816              -26.08          33.37          32.63          38.84          1.549         -12.33         -56.14          53.19          24.28          50.44          129.0
